<?xml version="1.0" encoding="iso-8859-1"?>
<!-- Generator: Adobe Illustrator 19.0.0, SVG Export Plug-In . SVG Version: 6.00 Build 0)  -->
<svg version="1.1" id="Layer_1" xmlns="http://www.w3.org/2000/svg" xmlns:xlink="http://www.w3.org/1999/xlink" x="0px" y="0px"
	 viewBox="0 0 512.001 512.001" style="enable-background:new 0 0 512.001 512.001;" xml:space="preserve">
<path style="fill:#003582;" d="M62.8,449.186c70.406,70.406,184.966,70.406,255.372,0l162.951-162.95l-63.843-63.843
	l-162.951,162.95c-35.203,35.203-92.483,35.203-127.686,0s-35.203-92.483,0-127.686l162.95-162.95L225.75,30.864L62.8,193.814
	C-7.606,264.22-7.606,378.78,62.8,449.186z"/>
<rect x="163.852" y="42.627" transform="matrix(0.7071 0.7071 -0.7071 0.7071 140.0397 -115.1324)" style="fill:#0078D5;" width="90.289" height="137.699"/>
<rect x="355.368" y="234.146" transform="matrix(-0.7071 -0.7071 0.7071 -0.7071 469.4674 800.4514)" style="fill:#E23225;" width="90.289" height="137.699"/>
<path d="M488.193,279.164l-63.843-63.843c-1.875-1.875-4.419-2.929-7.071-2.929s-5.196,1.054-7.071,2.929L247.257,378.272
	c-15.137,15.137-35.299,23.474-56.772,23.474s-41.635-8.336-56.771-23.473c-31.304-31.305-31.304-82.24,0-113.543l162.951-162.951
	c3.905-3.905,3.905-10.237,0-14.143l-63.843-63.843c-3.905-3.905-10.237-3.905-14.143,0l-162.95,162.95
	c-74.305,74.305-74.305,195.208,0,269.514c35.94,35.94,83.798,55.733,134.757,55.733s98.817-19.793,134.757-55.733l65.582-65.581
	c0.001-0.001,0.002-0.002,0.003-0.003s0.002-0.002,0.003-0.003l97.364-97.363C492.099,289.402,492.099,283.07,488.193,279.164z
	 M225.75,45.006l49.701,49.701l-83.224,83.224l-49.701-49.701L225.75,45.006z M311.1,442.115
	c-32.163,32.163-74.998,49.875-120.615,49.875s-88.452-17.713-120.614-49.875l0,0c-66.507-66.507-66.507-174.722,0-241.229
	l58.513-58.513l49.701,49.701l-58.513,58.513c-39.102,39.102-39.102,102.725,0,141.828c18.915,18.915,44.099,29.331,70.914,29.331
	s52-10.417,70.914-29.331l58.513-58.513l49.701,49.7L311.1,442.115z M383.756,369.46l-49.701-49.701l83.224-83.224l49.701,49.701
	L383.756,369.46z"/>
<path d="M310.135,84.011c-2.559,0-5.118-0.976-7.071-2.929c-3.905-3.905-3.906-10.237,0-14.142l37.89-37.891
	c3.905-3.905,10.237-3.906,14.142,0s3.906,10.237,0,14.142l-37.89,37.891C315.253,83.035,312.694,84.011,310.135,84.011z"/>
<path d="M371.943,22.204c-2.559,0-5.119-0.976-7.071-2.929c-3.905-3.905-3.905-10.237,0-14.143l0.161-0.161
	c3.905-3.905,10.237-3.905,14.143,0s3.905,10.237,0,14.143l-0.161,0.161C377.062,21.228,374.502,22.204,371.943,22.204z"/>
<path d="M288.801,62.678c-2.559,0-5.118-0.976-7.071-2.929c-3.905-3.905-3.906-10.237,0-14.142l40.551-40.552
	c3.905-3.905,10.237-3.906,14.142,0s3.905,10.237,0,14.142l-40.551,40.552C293.92,61.701,291.36,62.678,288.801,62.678z"/>
<path d="M267.468,41.344c-2.559,0-5.119-0.976-7.071-2.929c-3.905-3.905-3.905-10.237,0-14.143L279.699,4.97
	c3.905-3.905,10.237-3.905,14.143,0c3.905,3.905,3.905,10.237,0,14.143L274.54,38.415C272.586,40.368,270.027,41.344,267.468,41.344
	z"/>
<path d="M246.131,20.01c-2.63,0-5.21-1.07-7.07-2.93s-2.93-4.44-2.93-7.07s1.07-5.21,2.93-7.07s4.44-2.93,7.07-2.93
	c2.64,0,5.21,1.07,7.07,2.93s2.93,4.44,2.93,7.07s-1.07,5.21-2.93,7.07S248.771,20.01,246.131,20.01z"/>
<path d="M437.995,211.871c-2.559,0-5.118-0.976-7.071-2.929c-3.905-3.905-3.906-10.237,0-14.142l37.89-37.891
	c3.905-3.905,10.237-3.906,14.142,0s3.906,10.237,0,14.142l-37.89,37.891C443.113,210.895,440.554,211.871,437.995,211.871z"/>
<path d="M499.802,150.063c-2.559,0-5.119-0.976-7.071-2.929c-3.905-3.905-3.905-10.237,0-14.143l0.161-0.161
	c3.905-3.905,10.237-3.905,14.143,0c3.905,3.905,3.905,10.237,0,14.143l-0.161,0.161
	C504.92,149.087,502.361,150.063,499.802,150.063z"/>
<path d="M459.328,233.205c-2.559,0-5.119-0.977-7.071-2.929c-3.905-3.905-3.905-10.237,0-14.143l40.552-40.552
	c3.905-3.904,10.237-3.904,14.143,0c3.905,3.905,3.905,10.237,0,14.143L466.4,230.276
	C464.447,232.228,461.887,233.205,459.328,233.205z"/>
<path d="M480.662,254.538c-2.559,0-5.119-0.976-7.071-2.929c-3.905-3.905-3.905-10.237,0-14.143l19.302-19.302
	c3.905-3.905,10.237-3.905,14.143,0c3.905,3.905,3.905,10.237,0,14.143l-19.302,19.302
	C485.781,253.562,483.221,254.538,480.662,254.538z"/>
<path d="M502.001,275.871c-2.64,0-5.21-1.07-7.08-2.93c-1.86-1.86-2.92-4.44-2.92-7.07s1.06-5.21,2.92-7.07
	c1.87-1.86,4.44-2.93,7.08-2.93c2.63,0,5.2,1.07,7.07,2.93c1.86,1.86,2.93,4.44,2.93,7.07s-1.07,5.21-2.93,7.07
	C507.201,274.801,504.631,275.871,502.001,275.871z"/>
<g>
</g>
<g>
</g>
<g>
</g>
<g>
</g>
<g>
</g>
<g>
</g>
<g>
</g>
<g>
</g>
<g>
</g>
<g>
</g>
<g>
</g>
<g>
</g>
<g>
</g>
<g>
</g>
<g>
</g>
</svg>
